<svg width="71" height="26" viewBox="0 0 71 26" fill="none" xmlns="http://www.w3.org/2000/svg">
<path d="M0.12 14.3C0.12 12.1027 0.610667 10.14 1.592 8.412C2.59467 6.66267 3.94933 5.308 5.656 4.348C7.384 3.36667 9.31467 2.876 11.448 2.876C13.944 2.876 16.1307 3.516 18.008 4.796C19.8853 6.076 21.1973 7.84667 21.944 10.108H16.792C16.28 9.04133 15.5547 8.24133 14.616 7.708C13.6987 7.17467 12.632 6.908 11.416 6.908C10.1147 6.908 8.952 7.21733 7.928 7.836C6.92533 8.43333 6.136 9.28667 5.56 10.396C5.00533 11.5053 4.728 12.8067 4.728 14.3C4.728 15.772 5.00533 17.0733 5.56 18.204C6.136 19.3133 6.92533 20.1773 7.928 20.796C8.952 21.3933 10.1147 21.692 11.416 21.692C12.632 21.692 13.6987 21.4253 14.616 20.892C15.5547 20.3373 16.28 19.5267 16.792 18.46H21.944C21.1973 20.7427 19.8853 22.524 18.008 23.804C16.152 25.0627 13.9653 25.692 11.448 25.692C9.31467 25.692 7.384 25.212 5.656 24.252C3.94933 23.2707 2.59467 21.916 1.592 20.188C0.610667 18.46 0.12 16.4973 0.12 14.3ZM30.2505 1.82V25.5H25.7705V1.82H30.2505ZM36.9488 5.66C36.1594 5.66 35.4981 5.41467 34.9648 4.924C34.4528 4.412 34.1968 3.78267 34.1968 3.036C34.1968 2.28933 34.4528 1.67067 34.9648 1.18C35.4981 0.667999 36.1594 0.411999 36.9488 0.411999C37.7381 0.411999 38.3888 0.667999 38.9008 1.18C39.4341 1.67067 39.7008 2.28933 39.7008 3.036C39.7008 3.78267 39.4341 4.412 38.9008 4.924C38.3888 5.41467 37.7381 5.66 36.9488 5.66ZM39.1568 7.772V25.5H34.6768V7.772H39.1568ZM53.375 25.5L49.727 19.996L46.495 25.5H41.695L47.487 16.604L41.631 7.772H46.687L50.303 13.244L53.567 7.772H58.367L52.543 16.604L58.431 25.5H53.375ZM65.3443 10.524C65.9203 9.58533 66.6669 8.84933 67.5843 8.316C68.5229 7.78267 69.5896 7.516 70.7843 7.516V12.22H69.6003C68.1923 12.22 67.1256 12.5507 66.4003 13.212C65.6963 13.8733 65.3443 15.0253 65.3443 16.668V25.5H60.8643V7.772H65.3443V10.524Z" fill="white"/>
</svg>
