<svg width="42" height="38" viewBox="0 0 42 38" fill="none" xmlns="http://www.w3.org/2000/svg">
<path d="M3 16.7148C1.61929 16.7148 0.5 17.8341 0.5 19.2148C0.5 20.5956 1.61929 21.7148 3 21.7148V16.7148ZM40.7678 20.9826C41.7441 20.0063 41.7441 18.4234 40.7678 17.4471L24.8579 1.53717C23.8816 0.560863 22.2986 0.560863 21.3223 1.53717C20.346 2.51348 20.346 4.0964 21.3223 5.07271L35.4645 19.2148L21.3223 33.357C20.346 34.3333 20.346 35.9162 21.3223 36.8925C22.2986 37.8688 23.8816 37.8688 24.8579 36.8925L40.7678 20.9826ZM3 21.7148H39V16.7148H3V21.7148Z" fill="white"/>
</svg>
